<svg xmlns="http://www.w3.org/2000/svg" width="560" height="350" viewBox="0 0 560 350">
  <rect width="560" height="350" fill="#1a1a2a"/>
  <rect x="40" y="40" width="200" height="270" rx="6" fill="#2a2a3a" opacity="0.5"/>
  <rect x="55" y="60" width="170" height="8" rx="3" fill="#4a4a6a" opacity="0.5"/>
  <rect x="55" y="80" width="140" height="8" rx="3" fill="#3a3a5a" opacity="0.3"/>
  <rect x="55" y="100" width="160" height="8" rx="3" fill="#3a3a5a" opacity="0.4"/>
  <rect x="55" y="120" width="120" height="8" rx="3" fill="#3a3a5a" opacity="0.3"/>
  <rect x="55" y="150" width="170" height="2" rx="1" fill="#4a4a6a" opacity="0.3"/>
  <rect x="55" y="170" width="100" height="8" rx="3" fill="#5a4a6a" opacity="0.4"/>
  <rect x="55" y="190" width="150" height="8" rx="3" fill="#3a3a5a" opacity="0.3"/>
  <rect x="55" y="210" width="130" height="8" rx="3" fill="#3a3a5a" opacity="0.4"/>
  <rect x="55" y="240" width="170" height="2" rx="1" fill="#4a4a6a" opacity="0.3"/>
  <rect x="55" y="260" width="160" height="8" rx="3" fill="#4a5a6a" opacity="0.4"/>
  <rect x="55" y="280" width="90" height="8" rx="3" fill="#3a3a5a" opacity="0.3"/>
  <rect x="270" y="40" width="250" height="80" rx="6" fill="#2a2a3a" opacity="0.4"/>
  <rect x="290" y="55" width="80" height="6" rx="3" fill="#5a6a8a" opacity="0.5"/>
  <rect x="290" y="72" width="60" height="6" rx="3" fill="#5a6a8a" opacity="0.3"/>
  <rect x="290" y="89" width="100" height="6" rx="3" fill="#5a6a8a" opacity="0.4"/>
  <rect x="270" y="140" width="250" height="80" rx="6" fill="#2a2a3a" opacity="0.4"/>
  <rect x="290" y="155" width="100" height="6" rx="3" fill="#6a5a8a" opacity="0.5"/>
  <rect x="290" y="172" width="60" height="6" rx="3" fill="#6a5a8a" opacity="0.3"/>
  <rect x="290" y="189" width="80" height="6" rx="3" fill="#6a5a8a" opacity="0.4"/>
  <rect x="270" y="240" width="250" height="70" rx="6" fill="#2a2a3a" opacity="0.4"/>
  <rect x="290" y="255" width="70" height="6" rx="3" fill="#4a6a6a" opacity="0.5"/>
  <rect x="290" y="272" width="120" height="6" rx="3" fill="#4a6a6a" opacity="0.3"/>
  <text x="280" y="340" font-family="monospace" font-size="11" fill="#5a6a8a" text-anchor="middle" opacity="0.7">TheAlgorithms</text>
</svg>