<svg xmlns="http://www.w3.org/2000/svg" width="560" height="350" viewBox="0 0 560 350">
  <rect width="560" height="350" fill="#1a2a3a"/>
  <rect x="40" y="40" width="480" height="80" rx="6" fill="#2a3a4a" opacity="0.5"/>
  <rect x="60" y="60" width="80" height="12" rx="4" fill="#4a6a8a" opacity="0.6"/>
  <rect x="150" y="60" width="60" height="12" rx="4" fill="#3a5a6a" opacity="0.4"/>
  <rect x="60" y="85" width="120" height="8" rx="4" fill="#3a5a6a" opacity="0.3"/>
  <circle cx="80" cy="170" r="18" fill="#4a7a5a" opacity="0.4"/>
  <circle cx="160" cy="170" r="18" fill="#4a5a7a" opacity="0.4"/>
  <circle cx="240" cy="170" r="18" fill="#7a5a4a" opacity="0.4"/>
  <circle cx="320" cy="170" r="18" fill="#4a7a6a" opacity="0.4"/>
  <circle cx="400" cy="170" r="18" fill="#6a4a7a" opacity="0.4"/>
  <circle cx="480" cy="170" r="18" fill="#7a6a4a" opacity="0.4"/>
  <line x1="98" y1="170" x2="142" y2="170" stroke="#3a5a6a" stroke-width="1.5" opacity="0.5"/>
  <line x1="178" y1="170" x2="222" y2="170" stroke="#3a5a6a" stroke-width="1.5" opacity="0.5"/>
  <line x1="258" y1="170" x2="302" y2="170" stroke="#3a5a6a" stroke-width="1.5" opacity="0.5"/>
  <line x1="338" y1="170" x2="382" y2="170" stroke="#3a5a6a" stroke-width="1.5" opacity="0.5"/>
  <line x1="418" y1="170" x2="462" y2="170" stroke="#3a5a6a" stroke-width="1.5" opacity="0.5"/>
  <rect x="200" y="220" width="160" height="40" rx="4" fill="#3a5a6a" opacity="0.4"/>
  <rect x="220" y="232" width="120" height="6" rx="3" fill="#5a8aaa" opacity="0.5"/>
  <rect x="240" y="245" width="80" height="4" rx="2" fill="#5a8aaa" opacity="0.3"/>
  <rect x="40" y="290" width="480" height="6" rx="3" fill="#3a5a6a" opacity="0.3"/>
  <rect x="40" y="303" width="120" height="6" rx="3" fill="#4a7a5a" opacity="0.4"/>
  <rect x="175" y="303" width="100" height="6" rx="3" fill="#7a5a4a" opacity="0.4"/>
  <text x="280" y="335" font-family="monospace" font-size="11" fill="#5a8aaa" text-anchor="middle" opacity="0.7">MLOps Pipeline</text>
</svg>