<svg xmlns="http://www.w3.org/2000/svg" width="560" height="350" viewBox="0 0 560 350">
  <rect width="560" height="350" fill="#1a2a2a"/>
  <rect x="40" y="40" width="480" height="60" rx="6" fill="#2a3a3a" opacity="0.5"/>
  <circle cx="60" cy="70" r="4" fill="#6a4a4a" opacity="0.6"/>
  <circle cx="78" cy="70" r="4" fill="#6a6a4a" opacity="0.6"/>
  <circle cx="96" cy="70" r="4" fill="#4a6a4a" opacity="0.6"/>
  <rect x="120" y="60" width="150" height="12" rx="4" fill="#3a5a5a" opacity="0.5"/>
  <rect x="40" y="130" width="480" height="120" rx="4" fill="#2a3a3a" opacity="0.4"/>
  <rect x="60" y="150" width="200" height="8" rx="4" fill="#3a5a5a" opacity="0.5"/>
  <rect x="60" y="170" width="180" height="8" rx="4" fill="#3a5a5a" opacity="0.3"/>
  <rect x="60" y="190" width="220" height="8" rx="4" fill="#3a5a5a" opacity="0.4"/>
  <rect x="60" y="210" width="160" height="8" rx="4" fill="#3a5a5a" opacity="0.3"/>
  <rect x="60" y="230" width="200" height="8" rx="4" fill="#3a5a5a" opacity="0.5"/>
  <rect x="300" y="150" width="200" height="80" rx="4" fill="#3a5a5a" opacity="0.3"/>
  <rect x="320" y="165" width="80" height="6" rx="3" fill="#5a8a7a" opacity="0.5"/>
  <rect x="320" y="185" width="60" height="6" rx="3" fill="#5a8a7a" opacity="0.3"/>
  <rect x="320" y="205" width="100" height="6" rx="3" fill="#5a8a7a" opacity="0.4"/>
  <rect x="40" y="275" width="480" height="2" rx="1" fill="#3a5a5a" opacity="0.3"/>
  <text x="280" y="310" font-family="monospace" font-size="11" fill="#5a8a7a" text-anchor="middle" opacity="0.7">AI News Scraper</text>
</svg>